<?xml version="1.0" encoding="UTF-8" ?>
<svg xmlns="http://www.w3.org/2000/svg" viewBox="0 0 1000 710" width="1000" height="710">
  <defs>
    <style>
      .title { font-family: Arial, sans-serif; font-size: 22px; font-weight: bold; fill: #333; }
      .section-title { font-family: Arial, sans-serif; font-size: 14px; font-weight: bold; fill: #333; }
      .label { font-family: Arial, sans-serif; font-size: 12px; fill: #333; }
      .small { font-family: Arial, sans-serif; font-size: 10px; fill: #555; }
      .code { font-family: 'Courier New', monospace; font-size: 10px; fill: #333; }
    </style>
  </defs>

  <!-- Title -->
  <text x="500" y="30" text-anchor="middle" class="title">Níveis de Crypto-Policy - Comparação Detalhada</text>

  <!-- LEGACY Policy -->
  <rect x="30" y="55" width="230" height="340" rx="8" fill="#FFF3E0" stroke="#F57C00" stroke-width="2"/>
  <rect x="30" y="55" width="230" height="45" rx="8" fill="#FFC107"/>
  <text x="145" y="85" text-anchor="middle" class="section-title">LEGACY</text>
  <text x="145" y="95" text-anchor="middle" class="small">Compatibilidade Retroativa</text>

  <text x="50" y="125" class="label">Versões TLS:</text>
  <text x="60" y="143" class="small">✓ TLS 1.0</text>
  <text x="60" y="158" class="small">✓ TLS 1.1</text>
  <text x="60" y="173" class="small">✓ TLS 1.2</text>
  <text x="60" y="188" class="small">✓ TLS 1.3</text>

  <text x="50" y="215" class="label">Cifras:</text>
  <text x="60" y="233" class="small">✓ Cifras fracas permitidas</text>
  <text x="60" y="248" class="small">✓ SHA-1 HMAC</text>
  <text x="60" y="263" class="small">⚠️ Não recomendado</text>

  <text x="50" y="290" class="label">Tamanhos de Chave:</text>
  <text x="60" y="308" class="small">✓ RSA 1024+</text>
  <text x="60" y="323" class="small">✓ DH 1024+</text>
  <text x="60" y="338" class="small">⚠️ Abaixo padrões modernos</text>

  <rect x="45" y="355" width="200" height="30" rx="4" fill="#FFF3CD" stroke="#F57C00" stroke-width="1"/>
  <text x="145" y="375" text-anchor="middle" class="small">Uso: Clientes antigos, temp!</text>

  <!-- DEFAULT Policy -->
  <rect x="280" y="55" width="230" height="340" rx="8" fill="#E8F5E9" stroke="#388E3C" stroke-width="3"/>
  <rect x="280" y="55" width="230" height="45" rx="8" fill="#388E3C"/>
  <text x="395" y="85" text-anchor="middle" class="section-title" fill="#fff">DEFAULT ⭐</text>
  <text x="395" y="95" text-anchor="middle" class="small" fill="#fff">Segurança Equilibrada</text>

  <text x="300" y="125" class="label">Versões TLS:</text>
  <text x="310" y="143" class="small">✓ TLS 1.2</text>
  <text x="310" y="158" class="small">✓ TLS 1.3</text>
  <text x="310" y="173" class="small">✗ TLS 1.0/1.1 bloqueado</text>

  <text x="300" y="200" class="label">Cifras:</text>
  <text x="310" y="218" class="small">✓ Apenas cifras fortes</text>
  <text x="310" y="233" class="small">✓ Forward secrecy</text>
  <text x="310" y="248" class="small">✓ AEAD preferido</text>

  <text x="300" y="275" class="label">Tamanhos de Chave:</text>
  <text x="310" y="293" class="small">✓ RSA 2048+</text>
  <text x="310" y="308" class="small">✓ DH 2048+</text>
  <text x="310" y="323" class="small">✓ ECDH P-256+</text>

  <rect x="295" y="345" width="200" height="40" rx="4" fill="#D4EDDA" stroke="#388E3C" stroke-width="1"/>
  <text x="395" y="362" text-anchor="middle" class="small">Uso: Maioria dos ambientes</text>
  <text x="395" y="378" text-anchor="middle" class="small" fill="#388E3C">✓ Padrão recomendado</text>

  <!-- FUTURE Policy -->
  <rect x="530" y="55" width="230" height="340" rx="8" fill="#E0F7FA" stroke="#00ACC1" stroke-width="2"/>
  <rect x="530" y="55" width="230" height="45" rx="8" fill="#00ACC1"/>
  <text x="645" y="85" text-anchor="middle" class="section-title" fill="#fff">FUTURE</text>
  <text x="645" y="95" text-anchor="middle" class="small" fill="#fff">Segurança Rigorosa</text>

  <text x="550" y="125" class="label">Versões TLS:</text>
  <text x="560" y="143" class="small">✓ Apenas TLS 1.3</text>
  <text x="560" y="158" class="small">✗ TLS 1.2 bloqueado</text>
  <text x="560" y="173" class="small">✗ Versões antigas bloqueadas</text>

  <text x="550" y="200" class="label">Cifras:</text>
  <text x="560" y="218" class="small">✓ Apenas as mais fortes</text>
  <text x="560" y="233" class="small">✓ AEAD obrigatório</text>
  <text x="560" y="248" class="small">✓ PFS obrigatório</text>

  <text x="550" y="275" class="label">Tamanhos de Chave:</text>
  <text x="560" y="293" class="small">✓ RSA 3072+</text>
  <text x="560" y="308" class="small">✓ DH 3072+</text>
  <text x="560" y="323" class="small">✓ ECDH P-384+</text>

  <rect x="545" y="355" width="200" height="30" rx="4" fill="#B2EBF2" stroke="#00ACC1" stroke-width="1"/>
  <text x="645" y="375" text-anchor="middle" class="small">Uso: Alta segurança, clientes modernos</text>

  <!-- FIPS Policy -->
  <rect x="780" y="55" width="190" height="340" rx="8" fill="#FFEBEE" stroke="#E53935" stroke-width="2"/>
  <rect x="780" y="55" width="190" height="45" rx="8" fill="#E53935"/>
  <text x="875" y="85" text-anchor="middle" class="section-title" fill="#fff">FIPS</text>
  <text x="875" y="95" text-anchor="middle" class="small" fill="#fff">Conformidade FIPS 140-2/3</text>

  <text x="800" y="125" class="label">Versões TLS:</text>
  <text x="810" y="143" class="small">✓ TLS 1.2</text>
  <text x="810" y="158" class="small">✓ TLS 1.3</text>
  <text x="810" y="173" class="small">Apenas aprovado FIPS</text>

  <text x="800" y="200" class="label">Cifras:</text>
  <text x="810" y="218" class="small">✓ Aprovado FIPS</text>
  <text x="810" y="233" class="small">✓ AES-GCM, AES-CBC</text>
  <text x="810" y="248" class="small">Implementações validadas</text>

  <text x="800" y="275" class="label">Tamanhos de Chave:</text>
  <text x="810" y="293" class="small">✓ RSA 2048+</text>
  <text x="810" y="308" class="small">✓ ECDSA P-256+</text>
  <text x="810" y="323" class="small">Geração validada</text>

  <rect x="795" y="355" width="160" height="30" rx="4" fill="#FFCDD2" stroke="#E53935" stroke-width="1"/>
  <text x="875" y="375" text-anchor="middle" class="small">Uso: Gov/Regulado</text>

  <!-- Commands Section -->
  <rect x="30" y="420" width="450" height="120" rx="6" fill="#E3F2FD" stroke="#1976D2" stroke-width="2"/>
  <text x="255" y="445" text-anchor="middle" class="section-title" fill="#1976D2">Alterando Políticas</text>

  <text x="50" y="475" class="label">Definir política:</text>
  <rect x="150" y="460" width="310" height="25" rx="3" fill="#fff" stroke="#1976D2" stroke-width="1"/>
  <text x="305" y="478" text-anchor="middle" class="code">update-crypto-policies --set POLÍTICA</text>

  <text x="50" y="510" class="label">Verificar atual:</text>
  <rect x="150" y="495" width="310" height="25" rx="3" fill="#fff" stroke="#1976D2" stroke-width="1"/>
  <text x="305" y="513" text-anchor="middle" class="code">update-crypto-policies --show</text>

  <!-- Custom Policies Section -->
  <rect x="500" y="420" width="470" height="120" rx="6" fill="#FFF9C4" stroke="#F57C00" stroke-width="2"/>
  <text x="735" y="445" text-anchor="middle" class="section-title" fill="#F57C00">Modificadores de Política Personalizados</text>

  <text x="520" y="475" class="small">Combine política base com modificadores:</text>

  <rect x="520" y="485" width="200" height="20" rx="2" fill="#fff" stroke="#F57C00" stroke-width="1"/>
  <text x="620" y="500" text-anchor="middle" class="code">DEFAULT:NO-SHA1</text>

  <rect x="740" y="485" width="200" height="20" rx="2" fill="#fff" stroke="#F57C00" stroke-width="1"/>
  <text x="840" y="500" text-anchor="middle" class="code">FUTURE:AD-SUPPORT</text>

  <text x="520" y="530" class="small">Personalizados: /etc/crypto-policies/policies/modules/</text>

  <!-- Security Scale -->
  <rect x="30" y="560" width="940" height="80" rx="6" fill="#FAFAFA" stroke="#BDBDBD" stroke-width="1"/>
  <text x="500" y="585" text-anchor="middle" class="section-title">Escala de Nível de Segurança</text>

  <!-- Scale bar -->
  <rect x="100" y="595" width="800" height="20" rx="4" fill="none" stroke="#999" stroke-width="1"/>
  <rect x="100" y="595" width="200" height="20" rx="4" fill="#FFC107"/>
  <rect x="300" y="595" width="200" height="20" fill="#388E3C"/>
  <rect x="500" y="595" width="200" height="20" fill="#00ACC1"/>
  <rect x="700" y="595" width="200" height="20" rx="4" fill="#E53935"/>

  <text x="200" y="608" text-anchor="middle" class="small" fill="#333">LEGACY</text>
  <text x="400" y="608" text-anchor="middle" class="small" fill="#fff">DEFAULT</text>
  <text x="600" y="608" text-anchor="middle" class="small" fill="#fff">FUTURE</text>
  <text x="800" y="608" text-anchor="middle" class="small" fill="#fff">FIPS</text>

  <text x="100" y="630" text-anchor="middle" class="small">← Compatibilidade</text>
  <text x="900" y="630" text-anchor="middle" class="small">Segurança →</text>

  <!-- Warning -->
  <rect x="30" y="660" width="940" height="50" rx="4" fill="#FFF3CD" stroke="#F57C00" stroke-width="1"/>
  <text x="500" y="685" text-anchor="middle" class="small">⚠️ Alterar crypto-policies afeta TODAS as aplicações do sistema. Teste bem antes de aplicar em produção.</text>
  <text x="500" y="700" text-anchor="middle" class="code">Reinicie ou reinicie serviços após mudança de política para efeito completo.</text>
</svg>
