<?xml version="1.0" encoding="UTF-8" ?>
<svg xmlns="http://www.w3.org/2000/svg" viewBox="0 0 1000 800" width="1000" height="800">
  <defs>
    <style>
      .title { font-family: Arial, sans-serif; font-size: 22px; font-weight: bold; fill: #333; }
      .section-title { font-family: Arial, sans-serif; font-size: 14px; font-weight: bold; fill: #333; }
      .label { font-family: Arial, sans-serif; font-size: 12px; fill: #333; }
      .small { font-family: Arial, sans-serif; font-size: 10px; fill: #555; }
      .code { font-family: 'Courier New', monospace; font-size: 10px; fill: #333; }
    </style>
  </defs>

  <!-- Title -->
  <text x="500" y="30" text-anchor="middle" class="title">Matriz de Compatibilidade de Certificados Entre Versões</text>

  <!-- Matrix Header -->
  <rect x="30" y="50" width="600" height="300" rx="6" fill="#FAFAFA" stroke="#BDBDBD" stroke-width="2"/>

  <!-- Column Headers -->
  <rect x="130" y="60" width="120" height="30" rx="3" fill="#6C757D"/>
  <text x="190" y="80" text-anchor="middle" class="label" fill="#fff">Servidor RHEL 7</text>

  <rect x="260" y="60" width="120" height="30" rx="3" fill="#388E3C"/>
  <text x="320" y="80" text-anchor="middle" class="label" fill="#fff">Servidor RHEL 8</text>

  <rect x="390" y="60" width="120" height="30" rx="3" fill="#1976D2"/>
  <text x="450" y="80" text-anchor="middle" class="label" fill="#fff">Servidor RHEL 9</text>

  <rect x="520" y="60" width="100" height="30" rx="3" fill="#00ACC1"/>
  <text x="570" y="80" text-anchor="middle" class="label" fill="#fff">RHEL 10</text>

  <!-- Row Headers -->
  <rect x="40" y="100" width="80" height="45" rx="3" fill="#6C757D"/>
  <text x="80" y="120" text-anchor="middle" class="label" fill="#fff">RHEL 7</text>
  <text x="80" y="135" text-anchor="middle" class="small" fill="#fff">Cliente</text>

  <rect x="40" y="155" width="80" height="45" rx="3" fill="#388E3C"/>
  <text x="80" y="175" text-anchor="middle" class="label" fill="#fff">RHEL 8</text>
  <text x="80" y="190" text-anchor="middle" class="small" fill="#fff">Cliente</text>

  <rect x="40" y="210" width="80" height="45" rx="3" fill="#1976D2"/>
  <text x="80" y="230" text-anchor="middle" class="label" fill="#fff">RHEL 9</text>
  <text x="80" y="245" text-anchor="middle" class="small" fill="#fff">Cliente</text>

  <rect x="40" y="265" width="80" height="45" rx="3" fill="#00ACC1"/>
  <text x="80" y="285" text-anchor="middle" class="label" fill="#fff">RHEL 10</text>
  <text x="80" y="300" text-anchor="middle" class="small" fill="#fff">Cliente</text>

  <!-- Matrix Cells -->
  <!-- Row 1: RHEL 7 Client -->
  <rect x="130" y="100" width="120" height="45" rx="2" fill="#D4EDDA" stroke="#388E3C"/>
  <text x="190" y="127" text-anchor="middle" class="small">✓ Funciona</text>

  <rect x="260" y="100" width="120" height="45" rx="2" fill="#FFF3CD" stroke="#F57C00"/>
  <text x="320" y="120" text-anchor="middle" class="small">⚠️ SHA-1</text>
  <text x="320" y="135" text-anchor="middle" class="small">depreciado</text>

  <rect x="390" y="100" width="120" height="45" rx="2" fill="#FFEBEE" stroke="#E53935"/>
  <text x="450" y="120" text-anchor="middle" class="small" fill="#E53935">✗ SHA-1</text>
  <text x="450" y="135" text-anchor="middle" class="small" fill="#E53935">BLOQUEADO</text>

  <rect x="520" y="100" width="100" height="45" rx="2" fill="#FFEBEE" stroke="#E53935"/>
  <text x="570" y="127" text-anchor="middle" class="small" fill="#E53935">✗ Bloqueado</text>

  <!-- Row 2: RHEL 8 Client -->
  <rect x="130" y="155" width="120" height="45" rx="2" fill="#D4EDDA" stroke="#388E3C"/>
  <text x="190" y="182" text-anchor="middle" class="small">✓ Funciona</text>

  <rect x="260" y="155" width="120" height="45" rx="2" fill="#D4EDDA" stroke="#388E3C"/>
  <text x="320" y="182" text-anchor="middle" class="small">✓ Funciona</text>

  <rect x="390" y="155" width="120" height="45" rx="2" fill="#FFF3CD" stroke="#F57C00"/>
  <text x="450" y="175" text-anchor="middle" class="small">⚠️ SANs</text>
  <text x="450" y="190" text-anchor="middle" class="small">obrigatórios</text>

  <rect x="520" y="155" width="100" height="45" rx="2" fill="#D4EDDA" stroke="#388E3C"/>
  <text x="570" y="182" text-anchor="middle" class="small">✓ Funciona</text>

  <!-- Row 3: RHEL 9 Client -->
  <rect x="130" y="210" width="120" height="45" rx="2" fill="#D4EDDA" stroke="#388E3C"/>
  <text x="190" y="237" text-anchor="middle" class="small">✓ Funciona</text>

  <rect x="260" y="210" width="120" height="45" rx="2" fill="#D4EDDA" stroke="#388E3C"/>
  <text x="320" y="237" text-anchor="middle" class="small">✓ Funciona</text>

  <rect x="390" y="210" width="120" height="45" rx="2" fill="#D4EDDA" stroke="#388E3C"/>
  <text x="450" y="237" text-anchor="middle" class="small">✓ Funciona</text>

  <rect x="520" y="210" width="100" height="45" rx="2" fill="#D4EDDA" stroke="#388E3C"/>
  <text x="570" y="237" text-anchor="middle" class="small">✓ Funciona</text>

  <!-- Row 4: RHEL 10 Client -->
  <rect x="130" y="265" width="120" height="45" rx="2" fill="#D4EDDA" stroke="#388E3C"/>
  <text x="190" y="292" text-anchor="middle" class="small">✓ Funciona</text>

  <rect x="260" y="265" width="120" height="45" rx="2" fill="#D4EDDA" stroke="#388E3C"/>
  <text x="320" y="292" text-anchor="middle" class="small">✓ Funciona</text>

  <rect x="390" y="265" width="120" height="45" rx="2" fill="#D4EDDA" stroke="#388E3C"/>
  <text x="450" y="292" text-anchor="middle" class="small">✓ Funciona</text>

  <rect x="520" y="265" width="100" height="45" rx="2" fill="#D4EDDA" stroke="#388E3C"/>
  <text x="570" y="292" text-anchor="middle" class="small">✓ Funciona</text>

  <!-- Requirements by Version -->
  <rect x="650" y="50" width="320" height="300" rx="6" fill="#E3F2FD" stroke="#1976D2" stroke-width="2"/>
  <text x="810" y="75" text-anchor="middle" class="section-title" fill="#1976D2">Requisitos de Certificado</text>

  <!-- RHEL 7 Requirements -->
  <rect x="665" y="90" width="290" height="50" rx="4" fill="#fff" stroke="#6C757D" stroke-width="1"/>
  <text x="810" y="108" text-anchor="middle" class="label">Servidor RHEL 7</text>
  <text x="810" y="128" text-anchor="middle" class="small">• Qualquer TLS • SHA-1 OK • RSA 1024+ • SAN não req</text>

  <!-- RHEL 8 Requirements -->
  <rect x="665" y="150" width="290" height="50" rx="4" fill="#fff" stroke="#388E3C" stroke-width="1"/>
  <text x="810" y="168" text-anchor="middle" class="label">Servidor RHEL 8</text>
  <text x="810" y="188" text-anchor="middle" class="small">• TLS 1.2+ • SHA-256+ • RSA 2048+ • SANs recom.</text>

  <!-- RHEL 9 Requirements -->
  <rect x="665" y="210" width="290" height="55" rx="4" fill="#FFF3CD" stroke="#F57C00" stroke-width="1"/>
  <text x="810" y="228" text-anchor="middle" class="label" fill="#F57C00">Servidor RHEL 9 ⚠️</text>
  <text x="810" y="248" text-anchor="middle" class="small">• TLS 1.2+ obrigatório • SHA-256+ obrigatório</text>
  <text x="810" y="260" text-anchor="middle" class="small">• RSA 2048+ • SANs OBRIGATÓRIOS • Nunca SHA-1</text>

  <!-- RHEL 10 Requirements -->
  <rect x="665" y="275" width="290" height="50" rx="4" fill="#fff" stroke="#00ACC1" stroke-width="1"/>
  <text x="810" y="293" text-anchor="middle" class="label">Servidor RHEL 10</text>
  <text x="810" y="313" text-anchor="middle" class="small">• TLS 1.2/1.3 • Algs modernos • SANs obrigatórios</text>

  <!-- Best Practice Certificate -->
  <rect x="30" y="370" width="940" height="200" rx="8" fill="#D4EDDA" stroke="#388E3C" stroke-width="2"/>
  <text x="500" y="400" text-anchor="middle" class="section-title" fill="#388E3C">Certificado Universal Compatível - Funciona em TODAS as Versões RHEL</text>

  <rect x="60" y="420" width="280" height="130" rx="4" fill="#fff" stroke="#388E3C" stroke-width="1"/>
  <text x="200" y="445" text-anchor="middle" class="label">Configurações Obrigatórias</text>
  <text x="80" y="470" class="small">✓ Assinatura: SHA-256 ou SHA-384</text>
  <text x="80" y="490" class="small">✓ Chave: RSA 2048+ ou ECC P-256++</text>
  <text x="80" y="510" class="small">✓ SANs: Sempre incluir DNS/IP</text>
  <text x="80" y="530" class="small">✓ TLS: Suportar 1.2 e 1.3</text>

  <rect x="360" y="420" width="280" height="130" rx="4" fill="#fff" stroke="#388E3C" stroke-width="1"/>
  <text x="500" y="445" text-anchor="middle" class="label">Configurações Recomendadas</text>
  <text x="380" y="470" class="small">✓ Incluir cadeia completa do cert</text>
  <text x="380" y="490" class="small">✓ Validade: Não muito longa (&lt;397 dias)</text>
  <text x="380" y="510" class="small">✓ Usar suítes de cifra modernas</text>
  <text x="380" y="530" class="small">✓ Habilitar OCSP stapling</text>

  <rect x="660" y="420" width="280" height="130" rx="4" fill="#388E3C" stroke="#2E7D32" stroke-width="2"/>
  <text x="800" y="445" text-anchor="middle" class="label" fill="#fff">Resultado</text>
  <text x="800" y="480" text-anchor="middle" class="section-title" fill="#fff">Funciona no RHEL</text>
  <text x="800" y="510" text-anchor="middle" class="title" fill="#fff">7, 8, 9, 10 ✓</text>

  <!-- Legend -->
  <rect x="30" y="590" width="940" height="60" rx="4" fill="#FAFAFA" stroke="#BDBDBD" stroke-width="1"/>
  <text x="500" y="615" text-anchor="middle" class="section-title">Legenda</text>

  <rect x="100" y="625" width="20" height="15" rx="2" fill="#D4EDDA" stroke="#388E3C"/>
  <text x="130" y="637" class="small">✓ Compatibilidade Total</text>

  <rect x="300" y="625" width="20" height="15" rx="2" fill="#FFF3CD" stroke="#F57C00"/>
  <text x="330" y="637" class="small">⚠️ Depreciado/Aviso</text>

  <rect x="520" y="625" width="20" height="15" rx="2" fill="#FFEBEE" stroke="#E53935"/>
  <text x="550" y="637" class="small">✗ Bloqueado/Falha</text>

  <!-- Critical Warning -->
  <rect x="30" y="670" width="940" height="60" rx="6" fill="#FFEBEE" stroke="#E53935" stroke-width="2"/>
  <text x="500" y="695" text-anchor="middle" class="section-title" fill="#E53935">⚠️ Crítico: Mudança Incompatível na Migração RHEL 8 → RHEL 9</text>
  <text x="500" y="718" text-anchor="middle" class="small">Certificados SHA-1 que funcionavam no RHEL 8 FALHARÃO no RHEL 9. Certificados sem SANs podem causar avisos ou falhas.</text>
</svg>
