<?xml version="1.0" encoding="UTF-8" ?>
<svg xmlns="http://www.w3.org/2000/svg" viewBox="0 0 1000 780" width="1000" height="780">
  <defs>
    <style>
      .title { font-family: Arial, sans-serif; font-size: 22px; font-weight: bold; fill: #333; }
      .section-title { font-family: Arial, sans-serif; font-size: 14px; font-weight: bold; fill: #333; }
      .label { font-family: Arial, sans-serif; font-size: 12px; fill: #333; }
      .small { font-family: Arial, sans-serif; font-size: 10px; fill: #555; }
      .code { font-family: 'Courier New', monospace; font-size: 9px; fill: #333; }
      .arrow { stroke: #1976D2; stroke-width: 2; fill: none; marker-end: url(#arrowhead); }
    </style>
    <marker id="arrowhead" markerWidth="10" markerHeight="10" refX="9" refY="3" orient="auto">
      <polygon points="0 0, 10 3, 0 6" fill="#1976D2" />
    </marker>
  </defs>

  <!-- Title -->
  <text x="500" y="30" text-anchor="middle" class="title">Fluxo de Análise de Certificados do Relatório SOS</text>

  <!-- Left column: Steps 1-3 -->
  <!-- Step 1: Extract -->
  <ellipse cx="100" cy="80" rx="80" ry="28" fill="#E3F2FD" stroke="#1976D2" stroke-width="2"/>
  <text x="100" y="78" text-anchor="middle" class="small">Relatório SOS</text>
  <text x="100" y="92" text-anchor="middle" class="small">Recebido</text>

  <path d="M 100 108 L 100 135" class="arrow"/>

  <rect x="30" y="140" width="140" height="50" rx="6" fill="#1976D2" stroke="#0D47A1" stroke-width="2"/>
  <text x="100" y="163" text-anchor="middle" class="label" fill="#fff">1. Extrair</text>
  <text x="100" y="178" text-anchor="middle" class="code" fill="#fff">tar xvf *.tar.xz</text>

  <path d="M 100 190 L 100 215" class="arrow"/>

  <!-- Step 2: Review -->
  <rect x="30" y="220" width="140" height="50" rx="6" fill="#1976D2" stroke="#0D47A1" stroke-width="2"/>
  <text x="100" y="243" text-anchor="middle" class="label" fill="#fff">2. Revisar</text>
  <text x="100" y="258" text-anchor="middle" class="code" fill="#fff">manifest.json</text>

  <path d="M 100 270 L 100 295" class="arrow"/>

  <!-- Step 3: Focus Areas -->
  <rect x="30" y="300" width="140" height="40" rx="6" fill="#1976D2" stroke="#0D47A1" stroke-width="2"/>
  <text x="100" y="325" text-anchor="middle" class="label" fill="#fff">3. Foco: Certs</text>

  <!-- Arrow from Step 3 to Analysis Container -->
  <path d="M 170 320 L 195 320" class="arrow"/>

  <!-- Analysis Container Box -->
  <rect x="200" y="55" width="530" height="310" rx="8" fill="#FAFAFA" stroke="#9E9E9E" stroke-width="2" stroke-dasharray="6,3"/>
  <text x="465" y="78" text-anchor="middle" class="section-title">Áreas de Análise</text>

  <!-- Certificates Box (inside container) -->
  <rect x="215" y="90" width="245" height="125" rx="6" fill="#E8F5E9" stroke="#388E3C" stroke-width="1.5"/>
  <text x="337" y="112" text-anchor="middle" class="section-title" fill="#388E3C">Arquivos de Certificado</text>
  <text x="225" y="132" class="code">Verificar: etc/pki/</text>
  <text x="235" y="150" class="small">• ls-lR permissões</text>
  <text x="235" y="165" class="small">• Encontrar .crt .key .pem</text>
  <text x="235" y="180" class="small">• Verificar datas de expiração</text>
  <rect x="225" y="190" width="220" height="15" rx="2" fill="#FFEBEE" stroke="#E53935"/>
  <text x="335" y="202" text-anchor="middle" class="code" fill="#E53935">→ Expirado? Faltando?</text>

  <!-- Logs Box (inside container) -->
  <rect x="470" y="90" width="245" height="125" rx="6" fill="#E3F2FD" stroke="#1976D2" stroke-width="1.5"/>
  <text x="592" y="112" text-anchor="middle" class="section-title" fill="#1976D2">Logs do Sistema</text>
  <text x="480" y="132" class="code">Verificar:</text>
  <text x="490" y="150" class="small">• var/log/messages</text>
  <text x="490" y="165" class="small">• Saída journalctl</text>
  <text x="490" y="180" class="small">Buscar: SSL, TLS, cert</text>
  <rect x="480" y="190" width="220" height="15" rx="2" fill="#FFEBEE" stroke="#E53935"/>
  <text x="590" y="202" text-anchor="middle" class="code" fill="#E53935">→ Erros cert? AVC?</text>

  <!-- Configs Box (inside container) -->
  <rect x="215" y="225" width="245" height="125" rx="6" fill="#FFF3E0" stroke="#F57C00" stroke-width="1.5"/>
  <text x="337" y="247" text-anchor="middle" class="section-title" fill="#F57C00">Configs de Serviço</text>
  <text x="225" y="267" class="code">Verificar:</text>
  <text x="235" y="285" class="small">• etc/httpd/conf.d/</text>
  <text x="235" y="300" class="small">• etc/nginx/</text>
  <text x="235" y="315" class="small">• Configuração SSL/TLS</text>
  <rect x="225" y="325" width="220" height="15" rx="2" fill="#FFF3CD" stroke="#F57C00"/>
  <text x="335" y="337" text-anchor="middle" class="code" fill="#F57C00">→ Caminhos incorretos?</text>

  <!-- System State Box (inside container) -->
  <rect x="470" y="225" width="245" height="125" rx="6" fill="#E0F7FA" stroke="#00ACC1" stroke-width="1.5"/>
  <text x="592" y="247" text-anchor="middle" class="section-title" fill="#00ACC1">Estado do Sistema</text>
  <text x="480" y="267" class="code">Verificar:</text>
  <text x="490" y="285" class="small">• Versão RHEL</text>
  <text x="490" y="300" class="small">• Versão OpenSSL</text>
  <text x="490" y="315" class="small">• Crypto-policies</text>
  <rect x="480" y="325" width="220" height="15" rx="2" fill="#FFF3CD" stroke="#F57C00"/>
  <text x="590" y="337" text-anchor="middle" class="code" fill="#F57C00">→ Conflitos de política?</text>

  <!-- Arrow from Analysis Container to Step 4 -->
  <path d="M 730 210 L 755 210" class="arrow"/>

  <!-- Step 4: Compile Findings -->
  <rect x="760" y="55" width="210" height="310" rx="6" fill="#FAFAFA" stroke="#BDBDBD" stroke-width="2"/>
  <text x="865" y="80" text-anchor="middle" class="section-title">4. Compilar Achados</text>

  <text x="775" y="110" class="label">ACHADOS:</text>
  <rect x="775" y="120" width="180" height="25" rx="2" fill="#FFEBEE" stroke="#E53935"/>
  <text x="865" y="138" text-anchor="middle" class="code">📋 Certificados Expirados</text>
  <rect x="775" y="150" width="180" height="25" rx="2" fill="#FFF3CD" stroke="#F57C00"/>
  <text x="865" y="168" text-anchor="middle" class="code">📋 Problemas de Permissão</text>
  <rect x="775" y="180" width="180" height="25" rx="2" fill="#FFF3CD" stroke="#F57C00"/>
  <text x="865" y="198" text-anchor="middle" class="code">📋 Erros de Config</text>
  <rect x="775" y="210" width="180" height="25" rx="2" fill="#FFF3CD" stroke="#F57C00"/>
  <text x="865" y="228" text-anchor="middle" class="code">📋 Negações SELinux</text>
  <rect x="775" y="240" width="180" height="25" rx="2" fill="#E8F5E9" stroke="#388E3C"/>
  <text x="865" y="258" text-anchor="middle" class="code">📋 Problemas de Sistema</text>

  <text x="775" y="290" class="small">Organizar por categoria</text>
  <text x="775" y="308" class="small">e severidade para o</text>
  <text x="775" y="326" class="small">próximo passo...</text>

  <!-- Arrow from Step 4 to Step 5 -->
  <path d="M 865 365 L 865 395 L 500 395 L 500 425" class="arrow"/>

  <!-- Step 5: Priority Section -->
  <rect x="30" y="430" width="940" height="110" rx="6" fill="#FFF9C4" stroke="#F57C00" stroke-width="2"/>
  <text x="500" y="455" text-anchor="middle" class="section-title">5. Priorizar Problemas</text>

  <rect x="60" y="475" width="200" height="50" rx="4" fill="#E53935" stroke="#C62828" stroke-width="1"/>
  <text x="160" y="498" text-anchor="middle" class="label" fill="#fff">P1 - Crítico</text>
  <text x="160" y="515" text-anchor="middle" class="small" fill="#fff">Serviço fora/risco segurança</text>

  <rect x="280" y="475" width="200" height="50" rx="4" fill="#F57C00" stroke="#E65100" stroke-width="1"/>
  <text x="380" y="498" text-anchor="middle" class="label" fill="#fff">P2 - Alto</text>
  <text x="380" y="515" text-anchor="middle" class="small" fill="#fff">Falha iminente</text>

  <rect x="500" y="475" width="200" height="50" rx="4" fill="#FFC107" stroke="#FF8F00" stroke-width="1"/>
  <text x="600" y="498" text-anchor="middle" class="label">P3 - Médio</text>
  <text x="600" y="515" text-anchor="middle" class="small">Melhorias de config</text>

  <rect x="720" y="475" width="200" height="50" rx="4" fill="#4CAF50" stroke="#388E3C" stroke-width="1"/>
  <text x="820" y="498" text-anchor="middle" class="label" fill="#fff">P4 - Baixo</text>
  <text x="820" y="515" text-anchor="middle" class="small" fill="#fff">Melhores práticas</text>

  <!-- Arrow from Step 5 to Steps 6-7 -->
  <path d="M 500 540 L 500 555" class="arrow"/>

  <!-- Steps 6 and 7 -->
  <rect x="30" y="560" width="450" height="100" rx="6" fill="#E3F2FD" stroke="#1976D2" stroke-width="2"/>
  <text x="255" y="585" text-anchor="middle" class="section-title" fill="#1976D2">6. Criar Plano de Ação</text>
  <text x="50" y="610" class="small">Para cada problema:</text>
  <text x="60" y="628" class="code">• Problema: Descrição</text>
  <text x="60" y="643" class="code">• Correção: Passo a passo</text>
  <text x="250" y="628" class="code">• Teste: Como verificar</text>
  <text x="250" y="643" class="code">• Prevenir: Prevenção futura</text>

  <rect x="500" y="560" width="470" height="100" rx="6" fill="#D4EDDA" stroke="#388E3C" stroke-width="2"/>
  <text x="735" y="585" text-anchor="middle" class="section-title" fill="#388E3C">7. Entregar Análise</text>
  <text x="520" y="610" class="small">📄 Análise Completa:</text>
  <text x="530" y="628" class="code">• Documento de achados</text>
  <text x="530" y="643" class="code">• Plano de ação</text>
  <text x="740" y="628" class="code">• Comandos a executar</text>
  <text x="740" y="643" class="code">• Passos de prevenção</text>

  <!-- Final -->
  <ellipse cx="500" cy="720" rx="150" ry="30" fill="#D4EDDA" stroke="#388E3C" stroke-width="2"/>
  <text x="500" y="725" text-anchor="middle" class="label" fill="#388E3C">Análise Relatório SOS Entregue</text>

  <path d="M 500 660 L 500 690" class="arrow"/>
</svg>
