<?xml version="1.0" encoding="UTF-8" ?>
<svg xmlns="http://www.w3.org/2000/svg" viewBox="0 0 1000 700" width="1000" height="700">
  <defs>
    <style>
      .title { font-family: Arial, sans-serif; font-size: 22px; font-weight: bold; fill: #333; }
      .section-title { font-family: Arial, sans-serif; font-size: 14px; font-weight: bold; fill: #333; }
      .label { font-family: Arial, sans-serif; font-size: 12px; fill: #333; }
      .small { font-family: Arial, sans-serif; font-size: 10px; fill: #555; }
      .code { font-family: 'Courier New', monospace; font-size: 9px; fill: #333; }
    </style>
  </defs>

  <!-- Title -->
  <text x="500" y="30" text-anchor="middle" class="title">Common Certificate Errors Matrix</text>

  <!-- Headers -->
  <rect x="30" y="55" width="200" height="35" rx="4" fill="#FFEBEE" stroke="#E53935" stroke-width="2"/>
  <text x="130" y="78" text-anchor="middle" class="section-title" fill="#E53935">Error</text>

  <rect x="240" y="55" width="230" height="35" rx="4" fill="#FFF3E0" stroke="#F57C00" stroke-width="2"/>
  <text x="355" y="78" text-anchor="middle" class="section-title" fill="#F57C00">Symptom</text>

  <rect x="480" y="55" width="220" height="35" rx="4" fill="#E3F2FD" stroke="#1976D2" stroke-width="2"/>
  <text x="590" y="78" text-anchor="middle" class="section-title" fill="#1976D2">Diagnosis</text>

  <rect x="710" y="55" width="260" height="35" rx="4" fill="#D4EDDA" stroke="#388E3C" stroke-width="2"/>
  <text x="840" y="78" text-anchor="middle" class="section-title" fill="#388E3C">Solution</text>

  <!-- Row 1: Expired -->
  <rect x="30" y="100" width="200" height="65" rx="3" fill="#FFEBEE" stroke="#E53935" stroke-width="1"/>
  <text x="130" y="125" text-anchor="middle" class="label" fill="#E53935">Certificate Expired</text>

  <rect x="240" y="100" width="230" height="65" rx="3" fill="#FFF3E0" stroke="#F57C00" stroke-width="1"/>
  <text x="355" y="120" text-anchor="middle" class="code">ERR_CERT_DATE_INVALID</text>
  <text x="355" y="138" text-anchor="middle" class="code">curl: SSL certificate</text>
  <text x="355" y="153" text-anchor="middle" class="code">problem: expired</text>

  <rect x="480" y="100" width="220" height="65" rx="3" fill="#E3F2FD" stroke="#1976D2" stroke-width="1"/>
  <text x="590" y="125" text-anchor="middle" class="code">openssl x509 -enddate</text>
  <text x="590" y="145" text-anchor="middle" class="code">-noout -in cert.crt</text>

  <rect x="710" y="100" width="260" height="65" rx="3" fill="#D4EDDA" stroke="#388E3C" stroke-width="1"/>
  <text x="840" y="125" text-anchor="middle" class="small" fill="#388E3C">Renew: certbot renew</text>
  <text x="840" y="145" text-anchor="middle" class="small" fill="#388E3C">or getcert resubmit</text>

  <!-- Row 2: Hostname Mismatch -->
  <rect x="30" y="175" width="200" height="65" rx="3" fill="#FFEBEE" stroke="#E53935" stroke-width="1"/>
  <text x="130" y="200" text-anchor="middle" class="label" fill="#E53935">Hostname Mismatch</text>

  <rect x="240" y="175" width="230" height="65" rx="3" fill="#FFF3E0" stroke="#F57C00" stroke-width="1"/>
  <text x="355" y="198" text-anchor="middle" class="code">ERR_CERT_COMMON_NAME</text>
  <text x="355" y="218" text-anchor="middle" class="code">_INVALID</text>

  <rect x="480" y="175" width="220" height="65" rx="3" fill="#E3F2FD" stroke="#1976D2" stroke-width="1"/>
  <text x="590" y="198" text-anchor="middle" class="code">openssl x509 -text</text>
  <text x="590" y="218" text-anchor="middle" class="code">| grep DNS:</text>

  <rect x="710" y="175" width="260" height="65" rx="3" fill="#D4EDDA" stroke="#388E3C" stroke-width="1"/>
  <text x="840" y="200" text-anchor="middle" class="small" fill="#388E3C">Regenerate with SANs:</text>
  <text x="840" y="220" text-anchor="middle" class="code" fill="#388E3C">-addext 'SAN=DNS:host'</text>

  <!-- Row 3: Untrusted CA -->
  <rect x="30" y="250" width="200" height="65" rx="3" fill="#FFEBEE" stroke="#E53935" stroke-width="1"/>
  <text x="130" y="275" text-anchor="middle" class="label" fill="#E53935">Untrusted CA</text>

  <rect x="240" y="250" width="230" height="65" rx="3" fill="#FFF3E0" stroke="#F57C00" stroke-width="1"/>
  <text x="355" y="273" text-anchor="middle" class="code">ERR_CERT_AUTHORITY</text>
  <text x="355" y="293" text-anchor="middle" class="code">_INVALID</text>

  <rect x="480" y="250" width="220" height="65" rx="3" fill="#E3F2FD" stroke="#1976D2" stroke-width="1"/>
  <text x="590" y="275" text-anchor="middle" class="code">openssl verify</text>
  <text x="590" y="295" text-anchor="middle" class="code">-CAfile ca.crt cert.crt</text>

  <rect x="710" y="250" width="260" height="65" rx="3" fill="#D4EDDA" stroke="#388E3C" stroke-width="1"/>
  <text x="840" y="270" text-anchor="middle" class="small" fill="#388E3C">Add CA to trust store:</text>
  <text x="840" y="290" text-anchor="middle" class="code" fill="#388E3C">cp ca.crt /etc/pki/ca-trust/</text>
  <text x="840" y="305" text-anchor="middle" class="code" fill="#388E3C">source/anchors/</text>

  <!-- Row 4: Invalid Chain -->
  <rect x="30" y="325" width="200" height="65" rx="3" fill="#FFEBEE" stroke="#E53935" stroke-width="1"/>
  <text x="130" y="350" text-anchor="middle" class="label" fill="#E53935">Invalid Chain</text>

  <rect x="240" y="325" width="230" height="65" rx="3" fill="#FFF3E0" stroke="#F57C00" stroke-width="1"/>
  <text x="355" y="348" text-anchor="middle" class="code">unable to get local</text>
  <text x="355" y="368" text-anchor="middle" class="code">issuer certificate</text>

  <rect x="480" y="325" width="220" height="65" rx="3" fill="#E3F2FD" stroke="#1976D2" stroke-width="1"/>
  <text x="590" y="350" text-anchor="middle" class="code">openssl s_client</text>
  <text x="590" y="370" text-anchor="middle" class="code">-showcerts</text>

  <rect x="710" y="325" width="260" height="65" rx="3" fill="#D4EDDA" stroke="#388E3C" stroke-width="1"/>
  <text x="840" y="350" text-anchor="middle" class="small" fill="#388E3C">Include intermediates:</text>
  <text x="840" y="370" text-anchor="middle" class="code" fill="#388E3C">cat cert.crt inter.crt > full.crt</text>

  <!-- Row 5: Permission Denied -->
  <rect x="30" y="400" width="200" height="65" rx="3" fill="#FFEBEE" stroke="#E53935" stroke-width="1"/>
  <text x="130" y="425" text-anchor="middle" class="label" fill="#E53935">Permission Denied</text>

  <rect x="240" y="400" width="230" height="65" rx="3" fill="#FFF3E0" stroke="#F57C00" stroke-width="1"/>
  <text x="355" y="423" text-anchor="middle" class="code">Service won't start</text>
  <text x="355" y="443" text-anchor="middle" class="code">Permission denied in logs</text>

  <rect x="480" y="400" width="220" height="65" rx="3" fill="#E3F2FD" stroke="#1976D2" stroke-width="1"/>
  <text x="590" y="425" text-anchor="middle" class="code">ls -l /etc/pki/tls/</text>
  <text x="590" y="445" text-anchor="middle" class="code">private/</text>

  <rect x="710" y="400" width="260" height="65" rx="3" fill="#D4EDDA" stroke="#388E3C" stroke-width="1"/>
  <text x="840" y="425" text-anchor="middle" class="small" fill="#388E3C">Fix permissions:</text>
  <text x="840" y="445" text-anchor="middle" class="code" fill="#388E3C">chmod 600 key.pem</text>

  <!-- Row 6: SELinux Blocking -->
  <rect x="30" y="475" width="200" height="65" rx="3" fill="#FFEBEE" stroke="#E53935" stroke-width="1"/>
  <text x="130" y="500" text-anchor="middle" class="label" fill="#E53935">SELinux Blocking</text>

  <rect x="240" y="475" width="230" height="65" rx="3" fill="#FFF3E0" stroke="#F57C00" stroke-width="1"/>
  <text x="355" y="498" text-anchor="middle" class="code">AVC denial in logs</text>
  <text x="355" y="518" text-anchor="middle" class="code">Service fails silently</text>

  <rect x="480" y="475" width="220" height="65" rx="3" fill="#E3F2FD" stroke="#1976D2" stroke-width="1"/>
  <text x="590" y="500" text-anchor="middle" class="code">ausearch -m avc</text>
  <text x="590" y="520" text-anchor="middle" class="code">-ts recent</text>

  <rect x="710" y="475" width="260" height="65" rx="3" fill="#D4EDDA" stroke="#388E3C" stroke-width="1"/>
  <text x="840" y="500" text-anchor="middle" class="small" fill="#388E3C">Restore context:</text>
  <text x="840" y="520" text-anchor="middle" class="code" fill="#388E3C">restorecon -Rv /etc/pki</text>

  <!-- Row 7: Protocol Error -->
  <rect x="30" y="550" width="200" height="65" rx="3" fill="#FFEBEE" stroke="#E53935" stroke-width="1"/>
  <text x="130" y="575" text-anchor="middle" class="label" fill="#E53935">Protocol/Cipher Error</text>

  <rect x="240" y="550" width="230" height="65" rx="3" fill="#FFF3E0" stroke="#F57C00" stroke-width="1"/>
  <text x="355" y="573" text-anchor="middle" class="code">Handshake failure</text>
  <text x="355" y="593" text-anchor="middle" class="code">TLS alert</text>

  <rect x="480" y="550" width="220" height="65" rx="3" fill="#E3F2FD" stroke="#1976D2" stroke-width="1"/>
  <text x="590" y="575" text-anchor="middle" class="code">update-crypto-policies</text>
  <text x="590" y="595" text-anchor="middle" class="code">--show</text>

  <rect x="710" y="550" width="260" height="65" rx="3" fill="#D4EDDA" stroke="#388E3C" stroke-width="1"/>
  <text x="840" y="575" text-anchor="middle" class="small" fill="#388E3C">Adjust policy:</text>
  <text x="840" y="595" text-anchor="middle" class="code" fill="#388E3C">--set LEGACY (if needed)</text>

  <!-- Footer -->
  <rect x="30" y="635" width="940" height="50" rx="4" fill="#FAFAFA" stroke="#BDBDBD" stroke-width="1"/>
  <text x="500" y="655" text-anchor="middle" class="small">Quick Test: openssl s_client -connect hostname:443 | Verify: curl -v https://hostname</text>
  <text x="500" y="673" text-anchor="middle" class="small">Always reload service after fixes: systemctl reload httpd / nginx / postfix</text>
</svg>
